<mxfile host="app.diagrams.net" modified="2022-09-07T09:26:19.849Z" agent="5.0 (Windows NT 10.0; Win64; x64) AppleWebKit/537.36 (KHTML, like Gecko) Chrome/104.0.0.0 Safari/537.36" etag="Hey8fa1k8qjt-DfGysXB" version="20.2.8" type="github">
  <diagram id="SoZa_4AcdHNvvdQ_9TMP" name="第 1 页">
    <mxGraphModel dx="3987" dy="2933" grid="1" gridSize="10" guides="1" tooltips="1" connect="1" arrows="1" fold="1" page="1" pageScale="1" pageWidth="827" pageHeight="1169" math="0" shadow="0">
      <root>
        <mxCell id="0" />
        <mxCell id="1" parent="0" />
        <mxCell id="784cbDrwxi_V3fQU1oRy-98" value="" style="group" vertex="1" connectable="0" parent="1">
          <mxGeometry x="-640" y="-1000" width="600" height="700" as="geometry" />
        </mxCell>
        <mxCell id="784cbDrwxi_V3fQU1oRy-50" value="&lt;span style=&quot;color: rgb(0, 0, 0); text-align: center;&quot;&gt;Subnet-csvc01(10.138.4.*)&lt;/span&gt;" style="sketch=0;outlineConnect=0;html=1;whiteSpace=wrap;fontSize=12;fontStyle=0;shape=mxgraph.aws4.group;grIcon=mxgraph.aws4.group_subnet;strokeColor=#82b366;fillColor=#d5e8d4;verticalAlign=top;align=left;spacingLeft=30;dashed=0;" vertex="1" parent="784cbDrwxi_V3fQU1oRy-98">
          <mxGeometry width="600" height="676.5107656280491" as="geometry" />
        </mxCell>
        <mxCell id="784cbDrwxi_V3fQU1oRy-2" value="" style="group" vertex="1" connectable="0" parent="784cbDrwxi_V3fQU1oRy-98">
          <mxGeometry x="13.40341655716163" y="546.4125414688089" width="567.6741130091984" height="153.58745853119106" as="geometry" />
        </mxCell>
        <mxCell id="784cbDrwxi_V3fQU1oRy-12" value="" style="group" vertex="1" connectable="0" parent="784cbDrwxi_V3fQU1oRy-2">
          <mxGeometry x="15.768725361366624" y="-175.6326026149743" width="242.04993429697765" height="204.38431015416637" as="geometry" />
        </mxCell>
        <mxCell id="784cbDrwxi_V3fQU1oRy-13" value="" style="shape=folder;spacingTop=10;tabWidth=100;tabHeight=25;tabPosition=left;dashed=1;enumerate=0;comic=1;jiggle=1;treeMoving=0;treeFolding=0;deletable=1;rotatable=0;noLabel=0;shadow=1;sketch=0;" vertex="1" parent="784cbDrwxi_V3fQU1oRy-12">
          <mxGeometry width="212.87779237844936" height="156.11786899108824" as="geometry" />
        </mxCell>
        <mxCell id="784cbDrwxi_V3fQU1oRy-14" value="ELK" style="text;html=1;strokeColor=none;fillColor=none;align=center;verticalAlign=middle;whiteSpace=wrap;rounded=0;shadow=1;comic=1;sketch=0;jiggle=1;fontFamily=Verdana;fontSize=5;" vertex="1" parent="784cbDrwxi_V3fQU1oRy-12">
          <mxGeometry x="7.88436268068331" y="1.951473362388603" width="47.30617608409987" height="13.00982241592402" as="geometry" />
        </mxCell>
        <mxCell id="784cbDrwxi_V3fQU1oRy-18" value="ElasticSearch*6" style="outlineConnect=0;dashed=0;verticalLabelPosition=bottom;verticalAlign=top;align=center;html=1;shape=mxgraph.aws3.elasticsearch_service;fillColor=#F58534;gradientColor=none;" vertex="1" parent="784cbDrwxi_V3fQU1oRy-12">
          <mxGeometry x="23.653088042049934" y="26.01964483184804" width="40.21024967148488" height="32.52455603981006" as="geometry" />
        </mxCell>
        <mxCell id="784cbDrwxi_V3fQU1oRy-37" value="kibana????" style="shape=image;html=1;verticalAlign=top;verticalLabelPosition=bottom;labelBackgroundColor=#ffffff;imageAspect=0;aspect=fixed;image=https://cdn2.iconfinder.com/data/icons/whcompare-servers-web-hosting/50/staging-site-128.png" vertex="1" parent="784cbDrwxi_V3fQU1oRy-12">
          <mxGeometry x="24.441524310118265" y="91.39400247186624" width="32.52455603981006" height="32.52455603981006" as="geometry" />
        </mxCell>
        <mxCell id="784cbDrwxi_V3fQU1oRy-38" value="kafka*3" style="sketch=0;points=[[0,0,0],[0.25,0,0],[0.5,0,0],[0.75,0,0],[1,0,0],[0,1,0],[0.25,1,0],[0.5,1,0],[0.75,1,0],[1,1,0],[0,0.25,0],[0,0.5,0],[0,0.75,0],[1,0.25,0],[1,0.5,0],[1,0.75,0]];outlineConnect=0;fontColor=#232F3E;gradientColor=#945DF2;gradientDirection=north;fillColor=#5A30B5;strokeColor=#ffffff;dashed=0;verticalLabelPosition=bottom;verticalAlign=top;align=center;html=1;fontSize=12;fontStyle=0;aspect=fixed;shape=mxgraph.aws4.resourceIcon;resIcon=mxgraph.aws4.managed_streaming_for_kafka;" vertex="1" parent="784cbDrwxi_V3fQU1oRy-12">
          <mxGeometry x="134.03416557161628" y="32.52455603981006" width="31.874064919013847" height="31.874064919013847" as="geometry" />
        </mxCell>
        <mxCell id="784cbDrwxi_V3fQU1oRy-40" value="zk*3" style="shape=image;html=1;verticalAlign=top;verticalLabelPosition=bottom;labelBackgroundColor=#ffffff;imageAspect=0;aspect=fixed;image=https://cdn0.iconfinder.com/data/icons/construction-2-21/512/construction-industry-building-13-128.png" vertex="1" parent="784cbDrwxi_V3fQU1oRy-12">
          <mxGeometry x="101.31406044678054" y="104.07857932739216" width="32.52455603981006" height="32.52455603981006" as="geometry" />
        </mxCell>
        <mxCell id="784cbDrwxi_V3fQU1oRy-41" value="logstash" style="html=1;outlineConnect=0;whiteSpace=wrap;fillColor=#99ffff;shape=mxgraph.archimate3.component;direction=west;" vertex="1" parent="784cbDrwxi_V3fQU1oRy-12">
          <mxGeometry x="197.8975032851511" y="47.160606257724574" width="55.19053876478318" height="76.75795225395173" as="geometry" />
        </mxCell>
        <mxCell id="784cbDrwxi_V3fQU1oRy-97" value="" style="group" vertex="1" connectable="0" parent="784cbDrwxi_V3fQU1oRy-2">
          <mxGeometry x="23.65280523868848" y="-6.504911207962012" width="544.0213077705099" height="127.56781369934299" as="geometry" />
        </mxCell>
        <mxCell id="784cbDrwxi_V3fQU1oRy-3" value="" style="shape=folder;spacingTop=10;tabWidth=100;tabHeight=25;tabPosition=left;dashed=1;enumerate=0;comic=1;jiggle=1;treeMoving=0;treeFolding=0;deletable=1;rotatable=0;noLabel=0;shadow=1;sketch=0;" vertex="1" parent="784cbDrwxi_V3fQU1oRy-97">
          <mxGeometry x="0.0002828033614559212" y="3.974500748064787" width="544.0210249671484" height="123.5933129512782" as="geometry" />
        </mxCell>
        <mxCell id="784cbDrwxi_V3fQU1oRy-7" value="Gateway Openrestry*2" style="sketch=0;points=[[0,0,0],[0.25,0,0],[0.5,0,0],[0.75,0,0],[1,0,0],[0,1,0],[0.25,1,0],[0.5,1,0],[0.75,1,0],[1,1,0],[0,0.25,0],[0,0.5,0],[0,0.75,0],[1,0.25,0],[1,0.5,0],[1,0.75,0]];outlineConnect=0;fontColor=#232F3E;gradientColor=#FF4F8B;gradientDirection=north;fillColor=#BC1356;strokeColor=#ffffff;dashed=0;verticalLabelPosition=bottom;verticalAlign=top;align=center;html=1;fontSize=12;fontStyle=0;aspect=fixed;shape=mxgraph.aws4.resourceIcon;resIcon=mxgraph.aws4.api_gateway;" vertex="1" parent="784cbDrwxi_V3fQU1oRy-97">
          <mxGeometry x="189.22300264031068" y="41.13705847915176" width="49.2616925778963" height="49.2616925778963" as="geometry" />
        </mxCell>
        <mxCell id="784cbDrwxi_V3fQU1oRy-8" value="named" style="sketch=0;pointerEvents=1;shadow=0;dashed=0;html=1;strokeColor=none;fillColor=#005F4B;labelPosition=center;verticalLabelPosition=bottom;verticalAlign=top;align=center;outlineConnect=0;shape=mxgraph.veeam2.dns;" vertex="1" parent="784cbDrwxi_V3fQU1oRy-97">
          <mxGeometry x="25.411583723203762" y="44.870877512521936" width="32.712220762155056" height="29.083458010798143" as="geometry" />
        </mxCell>
        <mxCell id="784cbDrwxi_V3fQU1oRy-9" value="SFTP" style="sketch=0;points=[[0,0,0],[0.25,0,0],[0.5,0,0],[0.75,0,0],[1,0,0],[0,1,0],[0.25,1,0],[0.5,1,0],[0.75,1,0],[1,1,0],[0,0.25,0],[0,0.5,0],[0,0.75,0],[1,0.25,0],[1,0.5,0],[1,0.75,0]];outlineConnect=0;fontColor=#232F3E;gradientColor=#4AB29A;gradientDirection=north;fillColor=#116D5B;strokeColor=#ffffff;dashed=0;verticalLabelPosition=bottom;verticalAlign=top;align=center;html=1;fontSize=12;fontStyle=0;aspect=fixed;shape=mxgraph.aws4.resourceIcon;resIcon=mxgraph.aws4.transfer_for_sftp;" vertex="1" parent="784cbDrwxi_V3fQU1oRy-97">
          <mxGeometry x="102.49604684783968" y="49.68451180641382" width="24.269232361341896" height="24.269232361341896" as="geometry" />
        </mxCell>
        <mxCell id="784cbDrwxi_V3fQU1oRy-31" value="public openrestry*2" style="sketch=0;aspect=fixed;pointerEvents=1;shadow=0;dashed=0;html=1;strokeColor=none;labelPosition=center;verticalLabelPosition=bottom;verticalAlign=top;align=center;fillColor=#00188D;shape=mxgraph.mscae.enterprise.web_server" vertex="1" parent="784cbDrwxi_V3fQU1oRy-97">
          <mxGeometry x="318.05654604453173" y="45.553893189357964" width="24.718662590255637" height="32.52455603981005" as="geometry" />
        </mxCell>
        <mxCell id="784cbDrwxi_V3fQU1oRy-66" value="zabbix*2" style="sketch=0;aspect=fixed;pointerEvents=1;shadow=0;dashed=0;html=1;strokeColor=none;labelPosition=center;verticalLabelPosition=bottom;verticalAlign=top;align=center;fillColor=#00188D;shape=mxgraph.mscae.enterprise.performance_monitor" vertex="1" parent="784cbDrwxi_V3fQU1oRy-97">
          <mxGeometry x="425.75586756026024" y="44.870877512521936" width="32.52455603981005" height="23.417680348663232" as="geometry" />
        </mxCell>
        <mxCell id="784cbDrwxi_V3fQU1oRy-4" value="infrastructure" style="text;html=1;strokeColor=none;fillColor=none;align=center;verticalAlign=middle;whiteSpace=wrap;rounded=0;shadow=1;comic=1;sketch=0;jiggle=1;fontFamily=Verdana;fontSize=5;" vertex="1" parent="784cbDrwxi_V3fQU1oRy-97">
          <mxGeometry x="12.94" y="3.97" width="83.53195556086487" height="24.718662590255637" as="geometry" />
        </mxCell>
        <mxCell id="784cbDrwxi_V3fQU1oRy-15" value="" style="group" vertex="1" connectable="0" parent="784cbDrwxi_V3fQU1oRy-98">
          <mxGeometry x="289.35611038107754" y="377.28485006179653" width="307.4901445466492" height="156.11786899108824" as="geometry" />
        </mxCell>
        <mxCell id="784cbDrwxi_V3fQU1oRy-16" value="" style="shape=folder;spacingTop=10;tabWidth=100;tabHeight=25;tabPosition=left;dashed=1;enumerate=0;comic=1;jiggle=1;treeMoving=0;treeFolding=0;deletable=1;rotatable=0;noLabel=0;shadow=1;sketch=0;" vertex="1" parent="784cbDrwxi_V3fQU1oRy-15">
          <mxGeometry width="307.4901445466492" height="156.11786899108824" as="geometry" />
        </mxCell>
        <mxCell id="784cbDrwxi_V3fQU1oRy-17" value="CMS" style="text;html=1;strokeColor=none;fillColor=none;align=center;verticalAlign=middle;whiteSpace=wrap;rounded=0;shadow=1;comic=1;sketch=0;jiggle=1;fontFamily=Verdana;fontSize=5;" vertex="1" parent="784cbDrwxi_V3fQU1oRy-15">
          <mxGeometry x="0.0035041611914153536" y="1.9514733623886034" width="68.33114323258873" height="13.00982241592402" as="geometry" />
        </mxCell>
        <mxCell id="784cbDrwxi_V3fQU1oRy-19" value="Lenovo pic manager*2" style="shape=image;html=1;verticalAlign=top;verticalLabelPosition=bottom;labelBackgroundColor=#ffffff;imageAspect=0;aspect=fixed;image=https://cdn4.iconfinder.com/data/icons/multimedia-flat-19/32/Photo-128.png" vertex="1" parent="784cbDrwxi_V3fQU1oRy-15">
          <mxGeometry x="50.64444152431013" y="26.01964483184804" width="39.02946724777206" height="39.02946724777206" as="geometry" />
        </mxCell>
        <mxCell id="784cbDrwxi_V3fQU1oRy-33" value="&lt;span style=&quot;background-color: rgb(255, 255, 255);&quot;&gt;papi-openrestry*2&lt;/span&gt;" style="sketch=0;aspect=fixed;pointerEvents=1;shadow=0;dashed=0;html=1;strokeColor=none;labelPosition=center;verticalLabelPosition=bottom;verticalAlign=top;align=center;fillColor=#00188D;shape=mxgraph.mscae.enterprise.web_server" vertex="1" parent="784cbDrwxi_V3fQU1oRy-15">
          <mxGeometry x="244.41524310118274" y="97.57366811943015" width="24.71866259025564" height="32.52455603981006" as="geometry" />
        </mxCell>
        <mxCell id="784cbDrwxi_V3fQU1oRy-25" value="Static Resource openrestry*2" style="sketch=0;aspect=fixed;pointerEvents=1;shadow=0;dashed=0;html=1;strokeColor=none;labelPosition=center;verticalLabelPosition=bottom;verticalAlign=top;align=center;fillColor=#00188D;shape=mxgraph.mscae.enterprise.web_server" vertex="1" parent="784cbDrwxi_V3fQU1oRy-15">
          <mxGeometry x="200.64301357862468" y="32.51964483184804" width="24.71866259025564" height="32.52455603981006" as="geometry" />
        </mxCell>
        <mxCell id="784cbDrwxi_V3fQU1oRy-24" value="Bluecore Nginx*2" style="sketch=0;aspect=fixed;pointerEvents=1;shadow=0;dashed=0;html=1;strokeColor=none;labelPosition=center;verticalLabelPosition=bottom;verticalAlign=top;align=center;fillColor=#00188D;shape=mxgraph.mscae.enterprise.web_server" vertex="1" parent="784cbDrwxi_V3fQU1oRy-15">
          <mxGeometry x="149.80289093298293" y="97.57366811943015" width="24.71866259025564" height="32.52455603981006" as="geometry" />
        </mxCell>
        <mxCell id="784cbDrwxi_V3fQU1oRy-65" value="Lenovo pic&amp;nbsp;node*2" style="shape=image;html=1;verticalAlign=top;verticalLabelPosition=bottom;labelBackgroundColor=#ffffff;imageAspect=0;aspect=fixed;image=https://cdn4.iconfinder.com/data/icons/multimedia-flat-19/32/Photo-128.png" vertex="1" parent="784cbDrwxi_V3fQU1oRy-15">
          <mxGeometry x="39.424441524310126" y="91.06875691146813" width="39.02946724777206" height="39.02946724777206" as="geometry" />
        </mxCell>
        <mxCell id="784cbDrwxi_V3fQU1oRy-87" value="" style="group" vertex="1" connectable="0" parent="784cbDrwxi_V3fQU1oRy-98">
          <mxGeometry x="52.82522996057819" y="65.04911207962012" width="252.29960578186598" height="110.58349053535417" as="geometry" />
        </mxCell>
        <mxCell id="784cbDrwxi_V3fQU1oRy-88" value="" style="shape=folder;spacingTop=10;tabWidth=100;tabHeight=25;tabPosition=left;dashed=1;enumerate=0;comic=1;jiggle=1;treeMoving=0;treeFolding=0;deletable=1;rotatable=0;noLabel=0;shadow=1;sketch=0;" vertex="1" parent="784cbDrwxi_V3fQU1oRy-87">
          <mxGeometry width="252.29960578186598" height="110.58349053535417" as="geometry" />
        </mxCell>
        <mxCell id="784cbDrwxi_V3fQU1oRy-89" value="Test" style="text;html=1;strokeColor=none;fillColor=none;align=center;verticalAlign=middle;whiteSpace=wrap;rounded=0;shadow=1;comic=1;sketch=0;jiggle=1;fontFamily=Verdana;fontSize=5;" vertex="1" parent="784cbDrwxi_V3fQU1oRy-87">
          <mxGeometry x="7.88" y="1.39" width="63.07" height="18.61" as="geometry" />
        </mxCell>
        <mxCell id="784cbDrwxi_V3fQU1oRy-92" value="api-test" style="shape=image;html=1;verticalAlign=top;verticalLabelPosition=bottom;labelBackgroundColor=#ffffff;imageAspect=0;aspect=fixed;image=https://cdn0.iconfinder.com/data/icons/education-1006/32/education_test_exam_school_student_knowledge_study_examination_college_classroom-128.png" vertex="1" parent="784cbDrwxi_V3fQU1oRy-87">
          <mxGeometry x="8.672798948751645" y="23.41768034866324" width="51.388798542899885" height="51.388798542899885" as="geometry" />
        </mxCell>
        <mxCell id="784cbDrwxi_V3fQU1oRy-93" value="Jemeter" style="sketch=0;outlineConnect=0;fontColor=#232F3E;gradientColor=none;strokeColor=#232F3E;fillColor=#ffffff;dashed=0;verticalLabelPosition=bottom;verticalAlign=top;align=center;html=1;fontSize=12;fontStyle=0;aspect=fixed;shape=mxgraph.aws4.resourceIcon;resIcon=mxgraph.aws4.checklist_performance;" vertex="1" parent="784cbDrwxi_V3fQU1oRy-87">
          <mxGeometry x="77.17235216819977" y="29.59734599622715" width="39.02946724777206" height="39.02946724777206" as="geometry" />
        </mxCell>
        <mxCell id="784cbDrwxi_V3fQU1oRy-95" value="jms-jump server????" style="shape=mxgraph.signs.sports.ski_jump;html=1;pointerEvents=1;fillColor=#000000;strokeColor=none;verticalLabelPosition=bottom;verticalAlign=top;align=center;" vertex="1" parent="784cbDrwxi_V3fQU1oRy-87">
          <mxGeometry x="173.45597897503288" y="33.50029272100436" width="44.15243101182656" height="35.12652052299485" as="geometry" />
        </mxCell>
        <mxCell id="784cbDrwxi_V3fQU1oRy-51" value="" style="group" vertex="1" connectable="0" parent="784cbDrwxi_V3fQU1oRy-98">
          <mxGeometry x="349.99777923784495" y="65.0520698627463" width="95.40078843626807" height="110.58349053535417" as="geometry" />
        </mxCell>
        <mxCell id="784cbDrwxi_V3fQU1oRy-52" value="" style="shape=folder;spacingTop=10;tabWidth=100;tabHeight=25;tabPosition=left;dashed=1;enumerate=0;comic=1;jiggle=1;treeMoving=0;treeFolding=0;deletable=1;rotatable=0;noLabel=0;shadow=1;sketch=0;" vertex="1" parent="784cbDrwxi_V3fQU1oRy-51">
          <mxGeometry width="95.40078843626807" height="110.58349053535417" as="geometry" />
        </mxCell>
        <mxCell id="784cbDrwxi_V3fQU1oRy-53" value="Search" style="text;html=1;strokeColor=none;fillColor=none;align=center;verticalAlign=middle;whiteSpace=wrap;rounded=0;shadow=1;comic=1;sketch=0;jiggle=1;fontFamily=Verdana;fontSize=5;" vertex="1" parent="784cbDrwxi_V3fQU1oRy-51">
          <mxGeometry x="7.884362680683312" y="1.385546087295908" width="47.30617608409988" height="11.630781239836075" as="geometry" />
        </mxCell>
        <mxCell id="784cbDrwxi_V3fQU1oRy-56" value="ElasticSearch*3" style="outlineConnect=0;dashed=0;verticalLabelPosition=bottom;verticalAlign=top;align=center;html=1;shape=mxgraph.aws3.elasticsearch_service;fillColor=#F58534;gradientColor=none;" vertex="1" parent="784cbDrwxi_V3fQU1oRy-51">
          <mxGeometry x="27.595269382391592" y="36.863331815520716" width="40.210249671484895" height="34.6906914720614" as="geometry" />
        </mxCell>
        <mxCell id="784cbDrwxi_V3fQU1oRy-49" value="" style="group" vertex="1" connectable="0" parent="784cbDrwxi_V3fQU1oRy-98">
          <mxGeometry x="479.99517739816037" y="30.00470305080333" width="95.40078843626807" height="156.11786899108824" as="geometry" />
        </mxCell>
        <mxCell id="784cbDrwxi_V3fQU1oRy-42" value="" style="shape=folder;spacingTop=10;tabWidth=100;tabHeight=25;tabPosition=left;dashed=1;enumerate=0;comic=1;jiggle=1;treeMoving=0;treeFolding=0;deletable=1;rotatable=0;noLabel=0;shadow=1;sketch=0;" vertex="1" parent="784cbDrwxi_V3fQU1oRy-49">
          <mxGeometry width="95.40078843626807" height="156.11786899108824" as="geometry" />
        </mxCell>
        <mxCell id="784cbDrwxi_V3fQU1oRy-43" value="MSG" style="text;html=1;strokeColor=none;fillColor=none;align=center;verticalAlign=middle;whiteSpace=wrap;rounded=0;shadow=1;comic=1;sketch=0;jiggle=1;fontFamily=Verdana;fontSize=5;" vertex="1" parent="784cbDrwxi_V3fQU1oRy-49">
          <mxGeometry x="7.884362680683312" y="1.9514733623886034" width="47.30617608409988" height="13.00982241592402" as="geometry" />
        </mxCell>
        <mxCell id="784cbDrwxi_V3fQU1oRy-46" value="kafka*3" style="sketch=0;points=[[0,0,0],[0.25,0,0],[0.5,0,0],[0.75,0,0],[1,0,0],[0,1,0],[0.25,1,0],[0.5,1,0],[0.75,1,0],[1,1,0],[0,0.25,0],[0,0.5,0],[0,0.75,0],[1,0.25,0],[1,0.5,0],[1,0.75,0]];outlineConnect=0;fontColor=#232F3E;gradientColor=#945DF2;gradientDirection=north;fillColor=#5A30B5;strokeColor=#ffffff;dashed=0;verticalLabelPosition=bottom;verticalAlign=top;align=center;html=1;fontSize=12;fontStyle=0;aspect=fixed;shape=mxgraph.aws4.resourceIcon;resIcon=mxgraph.aws4.managed_streaming_for_kafka;" vertex="1" parent="784cbDrwxi_V3fQU1oRy-49">
          <mxGeometry x="24.441524310118268" y="32.52455603981006" width="39.02946724777206" height="39.02946724777206" as="geometry" />
        </mxCell>
        <mxCell id="784cbDrwxi_V3fQU1oRy-47" value="zk*3" style="shape=image;html=1;verticalAlign=top;verticalLabelPosition=bottom;labelBackgroundColor=#ffffff;imageAspect=0;aspect=fixed;image=https://cdn0.iconfinder.com/data/icons/construction-2-21/512/construction-industry-building-13-128.png" vertex="1" parent="784cbDrwxi_V3fQU1oRy-49">
          <mxGeometry x="24.441524310118268" y="97.57366811943015" width="39.02946724777206" height="39.02946724777206" as="geometry" />
        </mxCell>
        <mxCell id="784cbDrwxi_V3fQU1oRy-67" value="" style="group" vertex="1" connectable="0" parent="784cbDrwxi_V3fQU1oRy-98">
          <mxGeometry x="70" y="208.16" width="360" height="149.61" as="geometry" />
        </mxCell>
        <mxCell id="784cbDrwxi_V3fQU1oRy-68" value="" style="shape=folder;spacingTop=10;tabWidth=100;tabHeight=25;tabPosition=left;dashed=1;enumerate=0;comic=1;jiggle=1;treeMoving=0;treeFolding=0;deletable=1;rotatable=0;noLabel=0;shadow=1;sketch=0;" vertex="1" parent="784cbDrwxi_V3fQU1oRy-67">
          <mxGeometry width="360" height="149.61" as="geometry" />
        </mxCell>
        <mxCell id="784cbDrwxi_V3fQU1oRy-69" value="Public Service" style="text;html=1;strokeColor=none;fillColor=none;align=center;verticalAlign=middle;whiteSpace=wrap;rounded=0;shadow=1;comic=1;sketch=0;jiggle=1;fontFamily=Verdana;fontSize=5;" vertex="1" parent="784cbDrwxi_V3fQU1oRy-67">
          <mxGeometry y="2.6401764705882353" width="90" height="15.735451764705884" as="geometry" />
        </mxCell>
        <mxCell id="784cbDrwxi_V3fQU1oRy-71" value="Lenovo email *2" style="html=1;verticalLabelPosition=bottom;align=center;labelBackgroundColor=#ffffff;verticalAlign=top;strokeWidth=2;strokeColor=#0080F0;shadow=0;dashed=0;shape=mxgraph.ios7.icons.mail;" vertex="1" parent="784cbDrwxi_V3fQU1oRy-67">
          <mxGeometry x="36" y="35.202352941176486" width="27" height="14.520970588235295" as="geometry" />
        </mxCell>
        <mxCell id="784cbDrwxi_V3fQU1oRy-73" value="Lenovo ejob" style="shape=image;html=1;verticalAlign=top;verticalLabelPosition=bottom;labelBackgroundColor=#ffffff;imageAspect=0;aspect=fixed;image=https://cdn0.iconfinder.com/data/icons/job-seeker/256/notes_job_seeker_employee_unemployee_work-128.png" vertex="1" parent="784cbDrwxi_V3fQU1oRy-67">
          <mxGeometry x="131.84999999999997" y="29.27152173913043" width="35.12582608695652" height="35.12582608695652" as="geometry" />
        </mxCell>
        <mxCell id="784cbDrwxi_V3fQU1oRy-82" value="dubbo admin" style="sketch=0;pointerEvents=1;shadow=0;dashed=0;html=1;strokeColor=none;labelPosition=center;verticalLabelPosition=bottom;verticalAlign=top;align=center;fillColor=#515151;shape=mxgraph.mscae.system_center.admin_console" vertex="1" parent="784cbDrwxi_V3fQU1oRy-67">
          <mxGeometry x="284.85" y="35.13" width="25.15" height="23.42" as="geometry" />
        </mxCell>
        <mxCell id="784cbDrwxi_V3fQU1oRy-83" value="kafka monitor" style="aspect=fixed;html=1;points=[];align=center;image;fontSize=12;image=img/lib/azure2/management_governance/Monitor.svg;" vertex="1" parent="784cbDrwxi_V3fQU1oRy-67">
          <mxGeometry x="284.84999999999997" y="91.06695652173913" width="32.52391304347827" height="32.52391304347827" as="geometry" />
        </mxCell>
        <mxCell id="784cbDrwxi_V3fQU1oRy-84" value="&lt;span style=&quot;background-color: rgb(255, 255, 255);&quot;&gt;admin-openrestry*2&lt;/span&gt;" style="sketch=0;aspect=fixed;pointerEvents=1;shadow=0;dashed=0;html=1;strokeColor=none;labelPosition=center;verticalLabelPosition=bottom;verticalAlign=top;align=center;fillColor=#00188D;shape=mxgraph.mscae.enterprise.web_server" vertex="1" parent="784cbDrwxi_V3fQU1oRy-67">
          <mxGeometry x="63" y="83.9116956521739" width="24.718173913043476" height="32.52391304347827" as="geometry" />
        </mxCell>
        <mxCell id="784cbDrwxi_V3fQU1oRy-134" value="" style="group;fillColor=#d5e8d4;strokeColor=#82b366;" vertex="1" connectable="0" parent="1">
          <mxGeometry x="110" y="-980" width="560" height="640" as="geometry" />
        </mxCell>
        <mxCell id="784cbDrwxi_V3fQU1oRy-105" value="&lt;span style=&quot;color: rgb(0, 0, 0); text-align: center;&quot;&gt;Subnet-db01(10.138.5.*)&lt;/span&gt;" style="sketch=0;outlineConnect=0;html=1;whiteSpace=wrap;fontSize=12;fontStyle=0;shape=mxgraph.aws4.group;grIcon=mxgraph.aws4.group_subnet;strokeColor=#82b366;fillColor=#d5e8d4;verticalAlign=top;align=left;spacingLeft=30;dashed=0;" vertex="1" parent="784cbDrwxi_V3fQU1oRy-134">
          <mxGeometry width="560" height="640" as="geometry" />
        </mxCell>
        <mxCell id="784cbDrwxi_V3fQU1oRy-107" value="" style="group" vertex="1" connectable="0" parent="784cbDrwxi_V3fQU1oRy-134">
          <mxGeometry x="52.496477272727276" y="210.73170731707316" width="322.85227272727275" height="225.09268292682927" as="geometry" />
        </mxCell>
        <mxCell id="784cbDrwxi_V3fQU1oRy-108" value="" style="shape=folder;spacingTop=10;tabWidth=100;tabHeight=25;tabPosition=left;dashed=1;enumerate=0;comic=1;jiggle=1;treeMoving=0;treeFolding=0;deletable=1;rotatable=0;noLabel=0;shadow=1;sketch=0;" vertex="1" parent="784cbDrwxi_V3fQU1oRy-107">
          <mxGeometry x="7.852272727272728" y="6.556097560975609" width="315.0000000000001" height="218.53658536585365" as="geometry" />
        </mxCell>
        <mxCell id="784cbDrwxi_V3fQU1oRy-109" value="Redis*15" style="text;html=1;strokeColor=none;fillColor=none;align=center;verticalAlign=middle;whiteSpace=wrap;rounded=0;shadow=1;comic=1;sketch=0;jiggle=1;fontFamily=Verdana;fontSize=5;" vertex="1" parent="784cbDrwxi_V3fQU1oRy-107">
          <mxGeometry width="92.83742045454548" height="34.34146341463415" as="geometry" />
        </mxCell>
        <mxCell id="784cbDrwxi_V3fQU1oRy-110" value="accept*3" style="sketch=0;aspect=fixed;html=1;points=[];align=center;image;fontSize=12;image=img/lib/mscae/Cache_Redis_Product.svg;" vertex="1" parent="784cbDrwxi_V3fQU1oRy-107">
          <mxGeometry x="25.352272727272734" y="34.34146341463415" width="50.54439024390245" height="42.458536585365856" as="geometry" />
        </mxCell>
        <mxCell id="784cbDrwxi_V3fQU1oRy-111" value="cache*3" style="sketch=0;aspect=fixed;html=1;points=[];align=center;image;fontSize=12;image=img/lib/mscae/Cache_Redis_Product.svg;" vertex="1" parent="784cbDrwxi_V3fQU1oRy-107">
          <mxGeometry x="130.35227272727275" y="34.34146341463416" width="50.54439024390245" height="42.458536585365856" as="geometry" />
        </mxCell>
        <mxCell id="784cbDrwxi_V3fQU1oRy-112" value="goods*2" style="sketch=0;aspect=fixed;html=1;points=[];align=center;image;fontSize=12;image=img/lib/mscae/Cache_Redis_Product.svg;" vertex="1" parent="784cbDrwxi_V3fQU1oRy-107">
          <mxGeometry x="25.352272727272734" y="100.21463414634147" width="50.54439024390245" height="42.458536585365856" as="geometry" />
        </mxCell>
        <mxCell id="784cbDrwxi_V3fQU1oRy-113" value="stock" style="sketch=0;aspect=fixed;html=1;points=[];align=center;image;fontSize=12;image=img/lib/mscae/Cache_Redis_Product.svg;" vertex="1" parent="784cbDrwxi_V3fQU1oRy-107">
          <mxGeometry x="130.35227272727275" y="100.21463414634147" width="50.54439024390245" height="42.458536585365856" as="geometry" />
        </mxCell>
        <mxCell id="784cbDrwxi_V3fQU1oRy-114" value="cms*2" style="sketch=0;aspect=fixed;html=1;points=[];align=center;image;fontSize=12;image=img/lib/mscae/Cache_Redis_Product.svg;" vertex="1" parent="784cbDrwxi_V3fQU1oRy-107">
          <mxGeometry x="235.35227272727275" y="34.34146341463416" width="50.54439024390245" height="42.458536585365856" as="geometry" />
        </mxCell>
        <mxCell id="784cbDrwxi_V3fQU1oRy-115" value="cart" style="sketch=0;aspect=fixed;html=1;points=[];align=center;image;fontSize=12;image=img/lib/mscae/Cache_Redis_Product.svg;" vertex="1" parent="784cbDrwxi_V3fQU1oRy-107">
          <mxGeometry x="235.35227272727275" y="100.21463414634147" width="50.54439024390245" height="42.458536585365856" as="geometry" />
        </mxCell>
        <mxCell id="784cbDrwxi_V3fQU1oRy-116" value="search" style="sketch=0;aspect=fixed;html=1;points=[];align=center;image;fontSize=12;image=img/lib/mscae/Cache_Redis_Product.svg;" vertex="1" parent="784cbDrwxi_V3fQU1oRy-107">
          <mxGeometry x="130.35227272727275" y="162.6536585365854" width="50.54439024390245" height="42.458536585365856" as="geometry" />
        </mxCell>
        <mxCell id="784cbDrwxi_V3fQU1oRy-117" value="customer" style="sketch=0;aspect=fixed;html=1;points=[];align=center;image;fontSize=12;image=img/lib/mscae/Cache_Redis_Product.svg;" vertex="1" parent="784cbDrwxi_V3fQU1oRy-107">
          <mxGeometry x="25.352272727272734" y="162.65365853658537" width="50.54439024390245" height="42.458536585365856" as="geometry" />
        </mxCell>
        <mxCell id="784cbDrwxi_V3fQU1oRy-118" value="pay" style="sketch=0;aspect=fixed;html=1;points=[];align=center;image;fontSize=12;image=img/lib/mscae/Cache_Redis_Product.svg;" vertex="1" parent="784cbDrwxi_V3fQU1oRy-107">
          <mxGeometry x="235.35227272727275" y="162.65365853658537" width="50.54439024390245" height="42.458536585365856" as="geometry" />
        </mxCell>
        <mxCell id="784cbDrwxi_V3fQU1oRy-119" value="" style="group" vertex="1" connectable="0" parent="784cbDrwxi_V3fQU1oRy-134">
          <mxGeometry x="34.99639705882353" y="452.6829268292683" width="481.2536029411765" height="148.2926829268293" as="geometry" />
        </mxCell>
        <mxCell id="784cbDrwxi_V3fQU1oRy-120" value="" style="shape=folder;spacingTop=10;tabWidth=100;tabHeight=25;tabPosition=left;dashed=1;enumerate=0;comic=1;jiggle=1;treeMoving=0;treeFolding=0;deletable=1;rotatable=0;noLabel=0;shadow=1;sketch=0;" vertex="1" parent="784cbDrwxi_V3fQU1oRy-119">
          <mxGeometry x="26.253602941176474" y="7.8048780487804885" width="455.00000000000006" height="140.4878048780488" as="geometry" />
        </mxCell>
        <mxCell id="784cbDrwxi_V3fQU1oRy-121" value="mongo*9" style="text;html=1;strokeColor=none;fillColor=none;align=center;verticalAlign=middle;whiteSpace=wrap;rounded=0;shadow=1;comic=1;sketch=0;jiggle=1;fontFamily=Verdana;fontSize=5;" vertex="1" parent="784cbDrwxi_V3fQU1oRy-119">
          <mxGeometry width="129.70588235294122" height="37.46341463414634" as="geometry" />
        </mxCell>
        <mxCell id="784cbDrwxi_V3fQU1oRy-122" value="comment*3" style="sketch=0;shadow=0;dashed=0;html=1;strokeColor=none;labelPosition=center;verticalLabelPosition=bottom;verticalAlign=top;outlineConnect=0;align=center;shape=mxgraph.office.databases.database_mini_1;fillColor=#7FBA42;" vertex="1" parent="784cbDrwxi_V3fQU1oRy-119">
          <mxGeometry x="65.1875" y="56.58536585365854" width="82.68750000000001" height="42.926829268292686" as="geometry" />
        </mxCell>
        <mxCell id="784cbDrwxi_V3fQU1oRy-123" value="pic*3" style="sketch=0;shadow=0;dashed=0;html=1;strokeColor=none;labelPosition=center;verticalLabelPosition=bottom;verticalAlign=top;outlineConnect=0;align=center;shape=mxgraph.office.databases.database_mini_1;fillColor=#7FBA42;" vertex="1" parent="784cbDrwxi_V3fQU1oRy-119">
          <mxGeometry x="199.28125000000003" y="56.58536585365854" width="82.68750000000001" height="42.926829268292686" as="geometry" />
        </mxCell>
        <mxCell id="784cbDrwxi_V3fQU1oRy-124" value="order *3" style="sketch=0;shadow=0;dashed=0;html=1;strokeColor=none;labelPosition=center;verticalLabelPosition=bottom;verticalAlign=top;outlineConnect=0;align=center;shape=mxgraph.office.databases.database_mini_1;fillColor=#7FBA42;" vertex="1" parent="784cbDrwxi_V3fQU1oRy-119">
          <mxGeometry x="336.43750000000006" y="56.58536585365854" width="82.68750000000001" height="42.926829268292686" as="geometry" />
        </mxCell>
        <mxCell id="784cbDrwxi_V3fQU1oRy-125" value="" style="group" vertex="1" connectable="0" parent="784cbDrwxi_V3fQU1oRy-134">
          <mxGeometry x="52.50000000000001" y="39.02439024390244" width="472.50000000000006" height="187.3170731707317" as="geometry" />
        </mxCell>
        <mxCell id="784cbDrwxi_V3fQU1oRy-126" value="" style="group" vertex="1" connectable="0" parent="784cbDrwxi_V3fQU1oRy-125">
          <mxGeometry x="-26.253602941176474" y="-7.8048780487804885" width="481.2536029411765" height="148.2926829268293" as="geometry" />
        </mxCell>
        <mxCell id="784cbDrwxi_V3fQU1oRy-127" value="" style="shape=folder;spacingTop=10;tabWidth=100;tabHeight=25;tabPosition=left;dashed=1;enumerate=0;comic=1;jiggle=1;treeMoving=0;treeFolding=0;deletable=1;rotatable=0;noLabel=0;shadow=1;sketch=0;" vertex="1" parent="784cbDrwxi_V3fQU1oRy-126">
          <mxGeometry x="26.253602941176474" y="7.8048780487804885" width="455.00000000000006" height="140.4878048780488" as="geometry" />
        </mxCell>
        <mxCell id="784cbDrwxi_V3fQU1oRy-128" value="mysql*10" style="text;html=1;strokeColor=none;fillColor=none;align=center;verticalAlign=middle;whiteSpace=wrap;rounded=0;shadow=1;comic=1;sketch=0;jiggle=1;fontFamily=Verdana;fontSize=5;" vertex="1" parent="784cbDrwxi_V3fQU1oRy-126">
          <mxGeometry width="129.70588235294122" height="37.46341463414634" as="geometry" />
        </mxCell>
        <mxCell id="784cbDrwxi_V3fQU1oRy-129" value="gateway*2" style="outlineConnect=0;dashed=0;verticalLabelPosition=bottom;verticalAlign=top;align=center;html=1;shape=mxgraph.aws3.mysql_db_instance;fillColor=#2E73B8;gradientColor=none;" vertex="1" parent="784cbDrwxi_V3fQU1oRy-126">
          <mxGeometry x="52.503602941176474" y="57.75609756097561" width="52.50000000000001" height="50.34146341463415" as="geometry" />
        </mxCell>
        <mxCell id="784cbDrwxi_V3fQU1oRy-130" value="goods*2" style="outlineConnect=0;dashed=0;verticalLabelPosition=bottom;verticalAlign=top;align=center;html=1;shape=mxgraph.aws3.mysql_db_instance;fillColor=#2E73B8;gradientColor=none;" vertex="1" parent="784cbDrwxi_V3fQU1oRy-126">
          <mxGeometry x="140.0036029411765" y="57.75609756097561" width="52.50000000000001" height="50.34146341463415" as="geometry" />
        </mxCell>
        <mxCell id="784cbDrwxi_V3fQU1oRy-131" value="order*2" style="outlineConnect=0;dashed=0;verticalLabelPosition=bottom;verticalAlign=top;align=center;html=1;shape=mxgraph.aws3.mysql_db_instance;fillColor=#2E73B8;gradientColor=none;" vertex="1" parent="784cbDrwxi_V3fQU1oRy-126">
          <mxGeometry x="227.50360294117647" y="57.75609756097561" width="52.50000000000001" height="50.34146341463415" as="geometry" />
        </mxCell>
        <mxCell id="784cbDrwxi_V3fQU1oRy-132" value="promo*2" style="outlineConnect=0;dashed=0;verticalLabelPosition=bottom;verticalAlign=top;align=center;html=1;shape=mxgraph.aws3.mysql_db_instance;fillColor=#2E73B8;gradientColor=none;" vertex="1" parent="784cbDrwxi_V3fQU1oRy-126">
          <mxGeometry x="306.2536029411765" y="57.75609756097561" width="52.50000000000001" height="50.34146341463415" as="geometry" />
        </mxCell>
        <mxCell id="784cbDrwxi_V3fQU1oRy-133" value="customer*2" style="outlineConnect=0;dashed=0;verticalLabelPosition=bottom;verticalAlign=top;align=center;html=1;shape=mxgraph.aws3.mysql_db_instance;fillColor=#2E73B8;gradientColor=none;" vertex="1" parent="784cbDrwxi_V3fQU1oRy-126">
          <mxGeometry x="393.7536029411765" y="57.75609756097561" width="52.50000000000001" height="50.34146341463415" as="geometry" />
        </mxCell>
        <mxCell id="784cbDrwxi_V3fQU1oRy-244" value="" style="group;fillColor=#f5f5f5;fontColor=#333333;strokeColor=#666666;" vertex="1" connectable="0" parent="1">
          <mxGeometry x="-610" y="-150" width="1270" height="1010" as="geometry" />
        </mxCell>
        <mxCell id="784cbDrwxi_V3fQU1oRy-137" value="App-AKS01(10.138.0.*,10.138.1.*,10.138.2.*,10.138.3.*)" style="sketch=0;outlineConnect=0;gradientColor=none;html=1;whiteSpace=wrap;fontSize=12;fontStyle=0;shape=mxgraph.aws4.group;grIcon=mxgraph.aws4.group_subnet;strokeColor=#879196;fillColor=none;verticalAlign=top;align=left;spacingLeft=30;fontColor=#879196;dashed=0;" vertex="1" parent="784cbDrwxi_V3fQU1oRy-244">
          <mxGeometry width="1270" height="1010" as="geometry" />
        </mxCell>
        <mxCell id="784cbDrwxi_V3fQU1oRy-191" value="" style="group" vertex="1" connectable="0" parent="784cbDrwxi_V3fQU1oRy-244">
          <mxGeometry x="430.89285714285717" y="416.33587786259545" width="340.17857142857144" height="277.55725190839695" as="geometry" />
        </mxCell>
        <mxCell id="784cbDrwxi_V3fQU1oRy-192" value="" style="shape=folder;spacingTop=10;tabWidth=100;tabHeight=25;tabPosition=left;dashed=1;enumerate=0;comic=1;jiggle=1;treeMoving=0;treeFolding=0;deletable=1;rotatable=0;noLabel=0;shadow=1;sketch=0;" vertex="1" parent="784cbDrwxi_V3fQU1oRy-191">
          <mxGeometry x="7.559523809523811" width="340.17857142857144" height="277.55725190839695" as="geometry" />
        </mxCell>
        <mxCell id="784cbDrwxi_V3fQU1oRy-193" value="goods*11" style="text;html=1;strokeColor=none;fillColor=none;align=center;verticalAlign=middle;whiteSpace=wrap;rounded=0;shadow=1;comic=1;sketch=0;jiggle=1;fontFamily=Verdana;fontSize=5;" vertex="1" parent="784cbDrwxi_V3fQU1oRy-191">
          <mxGeometry x="10.973502304147466" y="-6.847787816008599e-16" width="65.84101382488481" height="22.204580152671756" as="geometry" />
        </mxCell>
        <mxCell id="784cbDrwxi_V3fQU1oRy-194" style="edgeStyle=orthogonalEdgeStyle;rounded=0;orthogonalLoop=1;jettySize=auto;html=1;fontFamily=Verdana;fontSize=5;fontColor=#000000;" edge="1" parent="784cbDrwxi_V3fQU1oRy-191" source="784cbDrwxi_V3fQU1oRy-197" target="784cbDrwxi_V3fQU1oRy-201">
          <mxGeometry relative="1" as="geometry" />
        </mxCell>
        <mxCell id="784cbDrwxi_V3fQU1oRy-195" style="edgeStyle=orthogonalEdgeStyle;rounded=0;orthogonalLoop=1;jettySize=auto;html=1;fontFamily=Verdana;fontSize=5;fontColor=#000000;" edge="1" parent="784cbDrwxi_V3fQU1oRy-191" source="784cbDrwxi_V3fQU1oRy-197" target="784cbDrwxi_V3fQU1oRy-202">
          <mxGeometry relative="1" as="geometry" />
        </mxCell>
        <mxCell id="784cbDrwxi_V3fQU1oRy-196" value="" style="edgeStyle=orthogonalEdgeStyle;rounded=0;orthogonalLoop=1;jettySize=auto;html=1;fontFamily=Verdana;fontSize=5;fontColor=#0000CC;" edge="1" parent="784cbDrwxi_V3fQU1oRy-191" source="784cbDrwxi_V3fQU1oRy-197" target="784cbDrwxi_V3fQU1oRy-202">
          <mxGeometry relative="1" as="geometry" />
        </mxCell>
        <mxCell id="784cbDrwxi_V3fQU1oRy-197" value="&lt;b&gt;&lt;font color=&quot;#0000cc&quot;&gt;goodswebui-web*4&lt;/font&gt;&lt;/b&gt;" style="sketch=0;aspect=fixed;html=1;points=[];align=center;image;fontSize=12;image=img/lib/mscae/App_Services.svg;shadow=1;comic=1;jiggle=1;fontFamily=Verdana;" vertex="1" parent="784cbDrwxi_V3fQU1oRy-191">
          <mxGeometry x="69.10666666666667" y="30.839694656488547" width="34.82702935168262" height="34.82702935168262" as="geometry" />
        </mxCell>
        <mxCell id="784cbDrwxi_V3fQU1oRy-198" style="edgeStyle=orthogonalEdgeStyle;rounded=0;orthogonalLoop=1;jettySize=auto;html=1;fontFamily=Verdana;fontSize=5;fontColor=#000000;" edge="1" parent="784cbDrwxi_V3fQU1oRy-191" source="784cbDrwxi_V3fQU1oRy-201" target="784cbDrwxi_V3fQU1oRy-203">
          <mxGeometry relative="1" as="geometry" />
        </mxCell>
        <mxCell id="784cbDrwxi_V3fQU1oRy-199" style="edgeStyle=orthogonalEdgeStyle;rounded=0;orthogonalLoop=1;jettySize=auto;html=1;fontFamily=Verdana;fontSize=5;fontColor=#0000CC;" edge="1" parent="784cbDrwxi_V3fQU1oRy-191" source="784cbDrwxi_V3fQU1oRy-201" target="784cbDrwxi_V3fQU1oRy-202">
          <mxGeometry relative="1" as="geometry" />
        </mxCell>
        <mxCell id="784cbDrwxi_V3fQU1oRy-200" style="edgeStyle=orthogonalEdgeStyle;rounded=0;orthogonalLoop=1;jettySize=auto;html=1;fontFamily=Verdana;fontSize=5;fontColor=#0000CC;" edge="1" parent="784cbDrwxi_V3fQU1oRy-191" source="784cbDrwxi_V3fQU1oRy-201" target="784cbDrwxi_V3fQU1oRy-204">
          <mxGeometry relative="1" as="geometry" />
        </mxCell>
        <mxCell id="784cbDrwxi_V3fQU1oRy-201" value="&lt;span style=&quot;font-weight: normal;&quot;&gt;goods-core*4&lt;/span&gt;" style="sketch=0;aspect=fixed;html=1;points=[];align=center;image;fontSize=12;image=img/lib/mscae/App_Services.svg;shadow=1;comic=1;jiggle=1;fontFamily=Verdana;fontStyle=1" vertex="1" parent="784cbDrwxi_V3fQU1oRy-191">
          <mxGeometry x="196.54761904761907" y="92.51908396946564" width="34.82702935168262" height="34.82702935168262" as="geometry" />
        </mxCell>
        <mxCell id="784cbDrwxi_V3fQU1oRy-202" value="&lt;span style=&quot;font-weight: normal;&quot;&gt;goods-cache*4&lt;/span&gt;" style="sketch=0;aspect=fixed;html=1;points=[];align=center;image;fontSize=12;image=img/lib/mscae/App_Services.svg;shadow=1;comic=1;jiggle=1;fontFamily=Verdana;fontStyle=1" vertex="1" parent="784cbDrwxi_V3fQU1oRy-191">
          <mxGeometry x="52.91666666666667" y="120.73740458015266" width="34.82702935168262" height="34.82702935168262" as="geometry" />
        </mxCell>
        <mxCell id="784cbDrwxi_V3fQU1oRy-203" value="&lt;span style=&quot;font-weight: normal;&quot;&gt;goodsdb&lt;/span&gt;" style="sketch=0;aspect=fixed;html=1;points=[];align=center;image;fontSize=12;image=img/lib/mscae/App_Services.svg;shadow=1;comic=1;jiggle=1;fontFamily=Verdana;fontStyle=1" vertex="1" parent="784cbDrwxi_V3fQU1oRy-191">
          <mxGeometry x="196.54761904761907" y="177.32824427480915" width="34.82702935168262" height="34.82702935168262" as="geometry" />
        </mxCell>
        <mxCell id="784cbDrwxi_V3fQU1oRy-204" value="&lt;span style=&quot;font-weight: 400;&quot;&gt;goodsdc&lt;/span&gt;" style="sketch=0;aspect=fixed;html=1;points=[];align=center;image;fontSize=12;image=img/lib/mscae/App_Services.svg;shadow=1;comic=1;jiggle=1;fontFamily=Verdana;fontStyle=1" vertex="1" parent="784cbDrwxi_V3fQU1oRy-191">
          <mxGeometry x="113.39285714285717" y="200.45801526717554" width="34.82702935168262" height="34.82702935168262" as="geometry" />
        </mxCell>
        <mxCell id="784cbDrwxi_V3fQU1oRy-205" value="" style="group" vertex="1" connectable="0" parent="784cbDrwxi_V3fQU1oRy-244">
          <mxGeometry x="840" y="131.07" width="343.82" height="231.3" as="geometry" />
        </mxCell>
        <mxCell id="784cbDrwxi_V3fQU1oRy-206" value="" style="shape=folder;spacingTop=10;tabWidth=100;tabHeight=25;tabPosition=left;dashed=1;enumerate=0;comic=1;jiggle=1;treeMoving=0;treeFolding=0;deletable=1;rotatable=0;noLabel=0;shadow=1;sketch=0;" vertex="1" parent="784cbDrwxi_V3fQU1oRy-205">
          <mxGeometry width="343.82000000000005" height="231.29999999999998" as="geometry" />
        </mxCell>
        <mxCell id="784cbDrwxi_V3fQU1oRy-207" value="purchase*5" style="text;html=1;strokeColor=none;fillColor=none;align=center;verticalAlign=middle;whiteSpace=wrap;rounded=0;shadow=1;comic=1;sketch=0;jiggle=1;fontFamily=Verdana;fontSize=5;" vertex="1" parent="784cbDrwxi_V3fQU1oRy-205">
          <mxGeometry width="82.9207885" height="23.900999999999996" as="geometry" />
        </mxCell>
        <mxCell id="784cbDrwxi_V3fQU1oRy-208" value="&lt;b&gt;&lt;font color=&quot;#0000cc&quot;&gt;purchaseweb-new*4&lt;/font&gt;&lt;/b&gt;" style="sketch=0;aspect=fixed;html=1;points=[];align=center;image;fontSize=12;image=img/lib/mscae/App_Services.svg;shadow=1;comic=1;jiggle=1;fontFamily=Verdana;" vertex="1" parent="784cbDrwxi_V3fQU1oRy-205">
          <mxGeometry x="84.68435000000001" y="48.92999999999999" width="34.827374173755395" height="34.827374173755395" as="geometry" />
        </mxCell>
        <mxCell id="784cbDrwxi_V3fQU1oRy-209" value="" style="group" vertex="1" connectable="0" parent="784cbDrwxi_V3fQU1oRy-244">
          <mxGeometry x="22.67857142857143" y="172.70229007633588" width="272.14285714285717" height="200.45801526717557" as="geometry" />
        </mxCell>
        <mxCell id="784cbDrwxi_V3fQU1oRy-210" value="" style="shape=folder;spacingTop=10;tabWidth=100;tabHeight=25;tabPosition=left;dashed=1;enumerate=0;comic=1;jiggle=1;treeMoving=0;treeFolding=0;deletable=1;rotatable=0;noLabel=0;shadow=1;sketch=0;" vertex="1" parent="784cbDrwxi_V3fQU1oRy-209">
          <mxGeometry width="272.14285714285717" height="200.45801526717557" as="geometry" />
        </mxCell>
        <mxCell id="784cbDrwxi_V3fQU1oRy-211" value="coupon*3" style="text;html=1;strokeColor=none;fillColor=none;align=center;verticalAlign=middle;whiteSpace=wrap;rounded=0;shadow=1;comic=1;sketch=0;jiggle=1;fontFamily=Verdana;fontSize=5;" vertex="1" parent="784cbDrwxi_V3fQU1oRy-209">
          <mxGeometry y="-6.16793893129771" width="75.5952380952381" height="30.83969465648855" as="geometry" />
        </mxCell>
        <mxCell id="784cbDrwxi_V3fQU1oRy-212" value="&lt;font style=&quot;&quot; color=&quot;#0000cc&quot;&gt;&lt;b&gt;couponfront&lt;/b&gt;&lt;br&gt;&lt;/font&gt;" style="sketch=0;aspect=fixed;html=1;points=[];align=center;image;fontSize=12;image=img/lib/mscae/App_Services.svg;shadow=1;comic=1;jiggle=1;fontFamily=Verdana;" vertex="1" parent="784cbDrwxi_V3fQU1oRy-209">
          <mxGeometry x="30.23809523809523" y="30.83969465648855" width="34.82702935168262" height="34.82702935168262" as="geometry" />
        </mxCell>
        <mxCell id="784cbDrwxi_V3fQU1oRy-213" value="&lt;span style=&quot;font-weight: 400;&quot;&gt;couponv2soa*4&lt;/span&gt;" style="sketch=0;aspect=fixed;html=1;points=[];align=center;image;fontSize=12;image=img/lib/mscae/App_Services.svg;shadow=1;comic=1;jiggle=1;fontFamily=Verdana;fontStyle=1" vertex="1" parent="784cbDrwxi_V3fQU1oRy-209">
          <mxGeometry x="173.86904761904765" y="115.64885496183207" width="34.82702935168262" height="34.82702935168262" as="geometry" />
        </mxCell>
        <mxCell id="784cbDrwxi_V3fQU1oRy-214" value="" style="group" vertex="1" connectable="0" parent="784cbDrwxi_V3fQU1oRy-244">
          <mxGeometry x="370.4166666666667" y="177.32824427480918" width="226.7857142857143" height="169.61832061068702" as="geometry" />
        </mxCell>
        <mxCell id="784cbDrwxi_V3fQU1oRy-215" value="" style="shape=folder;spacingTop=10;tabWidth=100;tabHeight=25;tabPosition=left;dashed=1;enumerate=0;comic=1;jiggle=1;treeMoving=0;treeFolding=0;deletable=1;rotatable=0;noLabel=0;shadow=1;sketch=0;" vertex="1" parent="784cbDrwxi_V3fQU1oRy-214">
          <mxGeometry x="-7.55952380952381" y="-23.12977099236641" width="234.3452380952381" height="185.03816793893128" as="geometry" />
        </mxCell>
        <mxCell id="784cbDrwxi_V3fQU1oRy-216" value="&lt;span style=&quot;font-weight: 400;&quot;&gt;promosoa&lt;/span&gt;" style="sketch=0;aspect=fixed;html=1;points=[];align=center;image;fontSize=12;image=img/lib/mscae/App_Services.svg;shadow=1;comic=1;jiggle=1;fontFamily=Verdana;fontStyle=1" vertex="1" parent="784cbDrwxi_V3fQU1oRy-214">
          <mxGeometry x="22.67857142857143" y="12.798473282442764" width="34.82702935168262" height="34.82702935168262" as="geometry" />
        </mxCell>
        <mxCell id="784cbDrwxi_V3fQU1oRy-217" value="promo*4" style="text;html=1;strokeColor=none;fillColor=none;align=center;verticalAlign=middle;whiteSpace=wrap;rounded=0;shadow=1;comic=1;sketch=0;jiggle=1;fontFamily=Verdana;fontSize=5;" vertex="1" parent="784cbDrwxi_V3fQU1oRy-214">
          <mxGeometry x="-7.557745098039218" y="-30.839694656488547" width="72.03781512605042" height="33.9236641221374" as="geometry" />
        </mxCell>
        <mxCell id="784cbDrwxi_V3fQU1oRy-218" value="" style="group" vertex="1" connectable="0" parent="784cbDrwxi_V3fQU1oRy-244">
          <mxGeometry x="892.0238095238096" y="447.175572519084" width="340.17857142857144" height="185.0381679389313" as="geometry" />
        </mxCell>
        <mxCell id="784cbDrwxi_V3fQU1oRy-219" value="" style="shape=folder;spacingTop=10;tabWidth=100;tabHeight=25;tabPosition=left;dashed=1;enumerate=0;comic=1;jiggle=1;treeMoving=0;treeFolding=0;deletable=1;rotatable=0;noLabel=0;shadow=1;sketch=0;" vertex="1" parent="784cbDrwxi_V3fQU1oRy-218">
          <mxGeometry width="340.17857142857144" height="185.0381679389313" as="geometry" />
        </mxCell>
        <mxCell id="784cbDrwxi_V3fQU1oRy-220" value="order*16" style="text;html=1;strokeColor=none;fillColor=none;align=center;verticalAlign=middle;whiteSpace=wrap;rounded=0;shadow=1;comic=1;sketch=0;jiggle=1;fontFamily=Verdana;fontSize=5;" vertex="1" parent="784cbDrwxi_V3fQU1oRy-218">
          <mxGeometry y="-1.5419847328244276" width="68.03571428571429" height="23.129770992366414" as="geometry" />
        </mxCell>
        <mxCell id="784cbDrwxi_V3fQU1oRy-221" value="&lt;span style=&quot;font-weight: 400;&quot;&gt;orderreceiver-sev&lt;/span&gt;" style="sketch=0;aspect=fixed;html=1;points=[];align=center;image;fontSize=12;image=img/lib/mscae/App_Services.svg;shadow=1;comic=1;jiggle=1;fontFamily=Verdana;fontStyle=1" vertex="1" parent="784cbDrwxi_V3fQU1oRy-218">
          <mxGeometry x="32.65714285714285" y="61.6793893129771" width="34.82702935168262" height="34.82702935168262" as="geometry" />
        </mxCell>
        <mxCell id="784cbDrwxi_V3fQU1oRy-222" value="" style="group" vertex="1" connectable="0" parent="784cbDrwxi_V3fQU1oRy-244">
          <mxGeometry x="845.1547619047619" y="678.4732824427481" width="128.51190476190476" height="77.09923664122137" as="geometry" />
        </mxCell>
        <mxCell id="784cbDrwxi_V3fQU1oRy-223" value="" style="shape=folder;spacingTop=10;tabWidth=100;tabHeight=25;tabPosition=left;dashed=1;enumerate=0;comic=1;jiggle=1;treeMoving=0;treeFolding=0;deletable=1;rotatable=0;noLabel=0;shadow=1;sketch=0;" vertex="1" parent="784cbDrwxi_V3fQU1oRy-222">
          <mxGeometry width="128.51190476190476" height="77.09923664122137" as="geometry" />
        </mxCell>
        <mxCell id="784cbDrwxi_V3fQU1oRy-224" value="pay*3" style="text;html=1;strokeColor=none;fillColor=none;align=center;verticalAlign=middle;whiteSpace=wrap;rounded=0;shadow=1;comic=1;sketch=0;jiggle=1;fontFamily=Verdana;fontSize=5;" vertex="1" parent="784cbDrwxi_V3fQU1oRy-222">
          <mxGeometry x="7.559523809523808" y="2.3129770992366407" width="45.357142857142854" height="15.41984732824427" as="geometry" />
        </mxCell>
        <mxCell id="784cbDrwxi_V3fQU1oRy-225" value="" style="group" vertex="1" connectable="0" parent="784cbDrwxi_V3fQU1oRy-244">
          <mxGeometry x="257.0238095238095" y="770.9923664122139" width="340.17857142857144" height="208.16793893129773" as="geometry" />
        </mxCell>
        <mxCell id="784cbDrwxi_V3fQU1oRy-226" value="" style="shape=folder;spacingTop=10;tabWidth=100;tabHeight=25;tabPosition=left;dashed=1;enumerate=0;comic=1;jiggle=1;treeMoving=0;treeFolding=0;deletable=1;rotatable=0;noLabel=0;shadow=1;sketch=0;" vertex="1" parent="784cbDrwxi_V3fQU1oRy-225">
          <mxGeometry width="340.17857142857144" height="208.16793893129773" as="geometry" />
        </mxCell>
        <mxCell id="784cbDrwxi_V3fQU1oRy-227" value="inventory*5" style="text;html=1;strokeColor=none;fillColor=none;align=center;verticalAlign=middle;whiteSpace=wrap;rounded=0;shadow=1;comic=1;sketch=0;jiggle=1;fontFamily=Verdana;fontSize=5;" vertex="1" parent="784cbDrwxi_V3fQU1oRy-225">
          <mxGeometry y="-2.3129770992366416" width="78.26375000000002" height="24.59465648854962" as="geometry" />
        </mxCell>
        <mxCell id="784cbDrwxi_V3fQU1oRy-228" value="&lt;span style=&quot;font-weight: 400;&quot;&gt;inventorysvs*4&lt;/span&gt;" style="sketch=0;aspect=fixed;html=1;points=[];align=center;image;fontSize=12;image=img/lib/mscae/App_Services.svg;shadow=1;comic=1;jiggle=1;fontFamily=Verdana;fontStyle=1" vertex="1" parent="784cbDrwxi_V3fQU1oRy-225">
          <mxGeometry x="30.238095238095244" y="38.54961832061068" width="34.82702935168262" height="34.82702935168262" as="geometry" />
        </mxCell>
        <mxCell id="784cbDrwxi_V3fQU1oRy-229" style="edgeStyle=orthogonalEdgeStyle;rounded=0;orthogonalLoop=1;jettySize=auto;html=1;fontFamily=Verdana;fontSize=5;fontColor=#0000CC;" edge="1" parent="784cbDrwxi_V3fQU1oRy-244" source="784cbDrwxi_V3fQU1oRy-208" target="784cbDrwxi_V3fQU1oRy-221">
          <mxGeometry relative="1" as="geometry" />
        </mxCell>
        <mxCell id="784cbDrwxi_V3fQU1oRy-230" style="edgeStyle=orthogonalEdgeStyle;rounded=0;orthogonalLoop=1;jettySize=auto;html=1;entryX=0.031;entryY=0.506;entryDx=0;entryDy=0;entryPerimeter=0;fontFamily=Verdana;fontSize=5;fontColor=#0000CC;" edge="1" parent="784cbDrwxi_V3fQU1oRy-244" source="784cbDrwxi_V3fQU1oRy-201" target="784cbDrwxi_V3fQU1oRy-221">
          <mxGeometry relative="1" as="geometry" />
        </mxCell>
        <mxCell id="784cbDrwxi_V3fQU1oRy-231" style="edgeStyle=orthogonalEdgeStyle;rounded=0;orthogonalLoop=1;jettySize=auto;html=1;fontFamily=Verdana;fontSize=5;fontColor=#0000CC;" edge="1" parent="784cbDrwxi_V3fQU1oRy-244" source="784cbDrwxi_V3fQU1oRy-201" target="784cbDrwxi_V3fQU1oRy-228">
          <mxGeometry relative="1" as="geometry" />
        </mxCell>
        <mxCell id="784cbDrwxi_V3fQU1oRy-232" value="" style="group" vertex="1" connectable="0" parent="784cbDrwxi_V3fQU1oRy-244">
          <mxGeometry x="650.1190476190477" y="778.7022900763359" width="294.8214285714286" height="192.74809160305347" as="geometry" />
        </mxCell>
        <mxCell id="784cbDrwxi_V3fQU1oRy-233" value="" style="shape=folder;spacingTop=10;tabWidth=100;tabHeight=25;tabPosition=left;dashed=1;enumerate=0;comic=1;jiggle=1;treeMoving=0;treeFolding=0;deletable=1;rotatable=0;noLabel=0;shadow=1;sketch=0;" vertex="1" parent="784cbDrwxi_V3fQU1oRy-232">
          <mxGeometry width="294.8214285714286" height="192.74809160305347" as="geometry" />
        </mxCell>
        <mxCell id="784cbDrwxi_V3fQU1oRy-234" value="cms*4" style="text;html=1;strokeColor=none;fillColor=none;align=center;verticalAlign=middle;whiteSpace=wrap;rounded=0;shadow=1;comic=1;sketch=0;jiggle=1;fontFamily=Verdana;fontSize=5;" vertex="1" parent="784cbDrwxi_V3fQU1oRy-232">
          <mxGeometry x="7.55952380952381" y="-1.5419847328244278" width="52.91666666666667" height="23.129770992366417" as="geometry" />
        </mxCell>
        <mxCell id="784cbDrwxi_V3fQU1oRy-235" value="&lt;span style=&quot;font-weight: 400;&quot;&gt;cmssite-svc&lt;/span&gt;" style="sketch=0;aspect=fixed;html=1;points=[];align=center;image;fontSize=12;image=img/lib/mscae/App_Services.svg;shadow=1;comic=1;jiggle=1;fontFamily=Verdana;fontStyle=1" vertex="1" parent="784cbDrwxi_V3fQU1oRy-232">
          <mxGeometry x="30.23809523809524" y="29.297709923664126" width="34.827029351682626" height="34.827029351682626" as="geometry" />
        </mxCell>
        <mxCell id="784cbDrwxi_V3fQU1oRy-236" style="edgeStyle=orthogonalEdgeStyle;rounded=0;orthogonalLoop=1;jettySize=auto;html=1;fontFamily=Verdana;fontSize=5;fontColor=#0000CC;" edge="1" parent="784cbDrwxi_V3fQU1oRy-244" source="784cbDrwxi_V3fQU1oRy-201" target="784cbDrwxi_V3fQU1oRy-235">
          <mxGeometry relative="1" as="geometry" />
        </mxCell>
        <mxCell id="784cbDrwxi_V3fQU1oRy-237" style="edgeStyle=orthogonalEdgeStyle;rounded=0;orthogonalLoop=1;jettySize=auto;html=1;fontFamily=Verdana;fontSize=5;fontColor=#0000CC;" edge="1" parent="784cbDrwxi_V3fQU1oRy-244" source="784cbDrwxi_V3fQU1oRy-197" target="784cbDrwxi_V3fQU1oRy-213">
          <mxGeometry relative="1" as="geometry" />
        </mxCell>
        <mxCell id="784cbDrwxi_V3fQU1oRy-238" style="edgeStyle=orthogonalEdgeStyle;rounded=0;orthogonalLoop=1;jettySize=auto;html=1;fontFamily=Verdana;fontSize=5;fontColor=#0000CC;" edge="1" parent="784cbDrwxi_V3fQU1oRy-244" source="784cbDrwxi_V3fQU1oRy-197" target="784cbDrwxi_V3fQU1oRy-228">
          <mxGeometry relative="1" as="geometry">
            <Array as="points">
              <mxPoint x="128.51190476190476" y="464.9083969465649" />
              <mxPoint x="128.51190476190476" y="827.2748091603054" />
            </Array>
          </mxGeometry>
        </mxCell>
        <mxCell id="784cbDrwxi_V3fQU1oRy-239" style="edgeStyle=orthogonalEdgeStyle;rounded=0;orthogonalLoop=1;jettySize=auto;html=1;fontFamily=Verdana;fontSize=5;fontColor=#0000CC;" edge="1" parent="784cbDrwxi_V3fQU1oRy-244" source="784cbDrwxi_V3fQU1oRy-197" target="784cbDrwxi_V3fQU1oRy-216">
          <mxGeometry relative="1" as="geometry" />
        </mxCell>
        <mxCell id="784cbDrwxi_V3fQU1oRy-240" style="edgeStyle=orthogonalEdgeStyle;rounded=0;orthogonalLoop=1;jettySize=auto;html=1;fontFamily=Verdana;fontSize=5;fontColor=#0000CC;" edge="1" parent="784cbDrwxi_V3fQU1oRy-244" source="784cbDrwxi_V3fQU1oRy-208" target="784cbDrwxi_V3fQU1oRy-201">
          <mxGeometry relative="1" as="geometry" />
        </mxCell>
        <mxCell id="784cbDrwxi_V3fQU1oRy-241" value="" style="group" vertex="1" connectable="0" parent="784cbDrwxi_V3fQU1oRy-244">
          <mxGeometry x="1020.5357142857144" y="686.1832061068703" width="128.51190476190476" height="77.09923664122137" as="geometry" />
        </mxCell>
        <mxCell id="784cbDrwxi_V3fQU1oRy-242" value="" style="shape=folder;spacingTop=10;tabWidth=100;tabHeight=25;tabPosition=left;dashed=1;enumerate=0;comic=1;jiggle=1;treeMoving=0;treeFolding=0;deletable=1;rotatable=0;noLabel=0;shadow=1;sketch=0;" vertex="1" parent="784cbDrwxi_V3fQU1oRy-241">
          <mxGeometry width="128.51190476190476" height="77.09923664122137" as="geometry" />
        </mxCell>
        <mxCell id="784cbDrwxi_V3fQU1oRy-243" value="global*5" style="text;html=1;strokeColor=none;fillColor=none;align=center;verticalAlign=middle;whiteSpace=wrap;rounded=0;shadow=1;comic=1;sketch=0;jiggle=1;fontFamily=Verdana;fontSize=5;" vertex="1" parent="784cbDrwxi_V3fQU1oRy-241">
          <mxGeometry x="7.559523809523808" y="2.3129770992366407" width="45.357142857142854" height="15.41984732824427" as="geometry" />
        </mxCell>
        <mxCell id="784cbDrwxi_V3fQU1oRy-246" value="" style="shape=singleArrow;direction=north;whiteSpace=wrap;html=1;" vertex="1" parent="1">
          <mxGeometry x="354" y="-340" width="60" height="190" as="geometry" />
        </mxCell>
        <mxCell id="784cbDrwxi_V3fQU1oRy-247" value="" style="shape=doubleArrow;direction=south;whiteSpace=wrap;html=1;" vertex="1" parent="1">
          <mxGeometry x="-413" y="-317.5" width="60" height="167.5" as="geometry" />
        </mxCell>
      </root>
    </mxGraphModel>
  </diagram>
</mxfile>
